HIERARCHY
ROOT Hips
{
	OFFSET 0.000000 0.000000 0.000000
	CHANNELS 6 Xposition Yposition Zposition Zrotation Yrotation Xrotation 
	JOINT LHipJoint
	{
		OFFSET 0.000000 0.000000 0.000000
		CHANNELS 3 Zrotation Yrotation Xrotation
		JOINT LeftUpLeg
		{
			OFFSET 1.363060 -1.794630 0.839290
			CHANNELS 3 Zrotation Yrotation Xrotation
			JOINT LeftLeg
			{
				OFFSET 2.448110 -6.726130 0.000000
				CHANNELS 3 Zrotation Yrotation Xrotation
				JOINT LeftFoot
				{
					OFFSET 2.562200 -7.039590 0.000000
					CHANNELS 3 Zrotation Yrotation Xrotation
					JOINT LeftToeBase
					{
						OFFSET 0.157640 -0.433110 2.322550
						CHANNELS 3 Zrotation Yrotation Xrotation
						End Site
						{
							OFFSET 0.000000 0.000000 0.000000
						}
					}
				}
			}
		}
	}
	JOINT RHipJoint
	{
		OFFSET 0.000000 0.000000 0.000000
		CHANNELS 3 Zrotation Yrotation Xrotation
		JOINT RightUpLeg
		{
			OFFSET -1.305520 -1.794630 0.839290
			CHANNELS 3 Zrotation Yrotation Xrotation
			JOINT RightLeg
			{
				OFFSET -2.542530 -6.985550 0.000000
				CHANNELS 3 Zrotation Yrotation Xrotation
				JOINT RightFoot
				{
					OFFSET -2.568260 -7.056230 0.000000
					CHANNELS 3 Zrotation Yrotation Xrotation
					JOINT RightToeBase
					{
						OFFSET -0.164730 -0.452590 2.363150
						CHANNELS 3 Zrotation Yrotation Xrotation
						End Site
						{
							OFFSET 0.000000 0.000000 0.000000
						}
					}
				}
			}
		}
	}
	JOINT LowerBack
	{
		OFFSET 0.000000 0.000000 0.000000
		CHANNELS 3 Zrotation Yrotation Xrotation
		JOINT Spine
		{
			OFFSET 0.028270 2.035590 -0.193380
			CHANNELS 3 Zrotation Yrotation Xrotation
			JOINT Spine1
			{
				OFFSET 0.056720 2.048850 -0.042750
				CHANNELS 3 Zrotation Yrotation Xrotation
				JOINT Neck
				{
					OFFSET 0.000000 0.000000 0.000000
					CHANNELS 3 Zrotation Yrotation Xrotation
					JOINT Neck1
					{
						OFFSET -0.054170 1.746240 0.172020
						CHANNELS 3 Zrotation Yrotation Xrotation
						JOINT Head
						{
							OFFSET 0.104070 1.761360 -0.123970
							CHANNELS 3 Zrotation Yrotation Xrotation
							End Site
							{
								OFFSET 0.000000 0.000000 0.000000
							}
						}
					}
				}
				JOINT LeftShoulder
				{
					OFFSET 0.000000 0.000000 0.000000
					CHANNELS 3 Zrotation Yrotation Xrotation
					JOINT LeftArm
					{
						OFFSET 3.362410 1.200890 -0.311210
						CHANNELS 3 Zrotation Yrotation Xrotation
						JOINT LeftForeArm
						{
							OFFSET 4.983000 -0.000000 -0.000000
							CHANNELS 3 Zrotation Yrotation Xrotation
							JOINT LeftHand
							{
								OFFSET 3.483560 -0.000000 -0.000000
								CHANNELS 3 Zrotation Yrotation Xrotation
								JOINT LeftFingerBase
								{
									OFFSET 0.000000 0.000000 0.000000
									CHANNELS 3 Zrotation Yrotation Xrotation
									JOINT LeftHandIndex1
									{
										OFFSET 0.715260 -0.000000 -0.000000
										CHANNELS 3 Zrotation Yrotation Xrotation
										End Site
										{
											OFFSET 0.000000 0.000000 0.000000
										}
									}
								}
								JOINT LThumb
								{
									OFFSET 0.000000 0.000000 0.000000
									CHANNELS 3 Zrotation Yrotation Xrotation
									End Site
									{
										OFFSET 0.000000 0.000000 0.000000
									}
								}
							}
						}
					}
				}
				JOINT RightShoulder
				{
					OFFSET 0.000000 0.000000 0.000000
					CHANNELS 3 Zrotation Yrotation Xrotation
					JOINT RightArm
					{
						OFFSET -3.136600 1.374050 -0.404650
						CHANNELS 3 Zrotation Yrotation Xrotation
						JOINT RightForeArm
						{
							OFFSET -5.241900 -0.000000 -0.000000
							CHANNELS 3 Zrotation Yrotation Xrotation
							JOINT RightHand
							{
								OFFSET -3.444170 -0.000000 -0.000000
								CHANNELS 3 Zrotation Yrotation Xrotation
								JOINT RightFingerBase
								{
									OFFSET 0.000000 0.000000 0.000000
									CHANNELS 3 Zrotation Yrotation Xrotation
									JOINT RightHandIndex1
									{
										OFFSET -0.622530 -0.000000 -0.000000
										CHANNELS 3 Zrotation Yrotation Xrotation
										End Site
										{
											OFFSET 0.000000 0.000000 0.000000
										}
									}
								}
								JOINT RThumb
								{
									OFFSET 0.000000 0.000000 0.000000
									CHANNELS 3 Zrotation Yrotation Xrotation
									End Site
									{
										OFFSET 0.000000 0.000000 0.000000
									}
								}
							}
						}
					}
				}
			}
		}
	}
}
MOTION
Frames: 6
Frame Time: 0.008333
10.391419 18.209869 0.588712 171.625067 -81.273138 -161.695868 -4.852542 2.830976 1.416085 -18.414722 -16.888785 -12.952397 -0.954021 6.229127 19.839417 -5.375422 18.740477 -1.764417 0.454400 4.324400 11.991000 -1.311105 -3.905842 0.269922 9.192114 28.860774 -15.176493 -0.789778 -7.072476 23.130801 0.517441 -3.600627 -5.144729 -0.000600 -0.156600 0.430200 -2.326490 -1.156720 1.550862 1.404168 -1.884984 -5.231270 2.100545 -0.716722 -4.317206 0.062285 0.906461 -12.883062 -5.321041 3.550014 36.302229 -1.679700 1.040800 10.044200 -7.328182 -12.258860 2.705746 -89.791846 13.523492 -8.876877 36.941909 -37.060192 -11.330360 1.045278 0.480036 10.497563 20.416368 -6.567042 -2.579800 -7.125000 0.000000 0.000000 -5.343000 22.233900 2.936500 5.787680 14.723381 4.704424 78.678996 -21.458815 -15.061985 -48.642790 44.517208 -22.474514 1.100583 -0.086945 -1.072060 -3.338614 -52.527824 3.522500 7.125000 0.000000 0.000000 68.303100 -72.710600 -50.680500 
10.412026 18.214374 0.589500 171.908697 -81.007587 -161.869593 -4.824581 2.788570 1.394919 -18.408056 -16.684396 -13.276935 -0.943166 6.273422 19.947067 -5.335487 18.618956 -1.875266 0.493000 4.501800 12.492900 -1.315368 -3.865844 0.256276 9.105598 28.913959 -15.461755 -0.805368 -7.094104 23.194111 0.475921 -3.358493 -4.992673 -0.001200 -0.219900 0.604200 -2.393893 -1.242603 1.558426 1.375827 -1.996014 -5.129891 2.129240 -0.781573 -4.153278 0.457189 1.178995 -13.114853 -5.635496 4.002037 36.356490 -1.768800 1.248400 10.144700 -7.328570 -12.219012 2.713107 -89.481593 13.426484 -8.750716 37.305476 -37.386062 -11.572537 1.031269 0.512778 11.222140 21.187734 -5.503642 -2.320700 -7.125000 0.000000 0.000000 -4.763500 23.275800 2.501800 5.772558 14.739097 4.699832 78.427078 -21.192770 -15.257982 -49.359401 44.859316 -23.012455 1.085494 -0.088711 -1.210304 -3.844313 -52.135309 3.889900 7.125000 0.000000 0.000000 66.788000 -72.747200 -49.359700 
10.434660 18.212910 0.588036 172.452626 -80.740860 -162.322564 -4.799719 2.759985 1.380261 -18.328686 -16.495180 -13.573082 -0.935517 6.308144 20.005410 -5.334082 18.615929 -1.826100 0.483600 4.459500 12.373200 -1.316733 -3.827331 0.238071 9.090428 29.046147 -15.720396 -0.829208 -7.124724 23.298353 0.450596 -3.196148 -4.841828 -0.001300 -0.231200 0.635100 -2.485066 -1.371126 1.544980 1.380330 -2.158271 -4.969342 2.223560 -0.874665 -3.900156 0.998376 1.482367 -13.554575 -6.153851 4.559906 36.469213 -1.920600 1.486900 10.323900 -7.335289 -12.164549 2.714295 -89.183957 13.176373 -8.858090 37.786656 -37.820366 -11.881652 1.014970 0.527303 11.487525 21.500251 -4.766975 -2.092300 -7.125000 0.000000 0.000000 -4.522200 24.030100 2.295600 5.754410 14.760113 4.689780 78.127854 -20.744378 -15.331442 -50.130780 45.224247 -23.593673 1.070233 -0.084035 -1.251658 -3.691258 -51.618085 3.730500 7.125000 0.000000 0.000000 65.372500 -72.499900 -47.818500 
10.456619 18.211446 0.584320 172.606263 -80.515242 -162.425067 -4.775846 2.728969 1.369657 -18.300181 -16.246050 -13.848780 -0.924261 6.341839 20.061983 -5.304999 18.536954 -1.592709 0.472900 4.410600 12.234800 -1.318333 -3.797569 0.221268 9.044584 29.187801 -15.919482 -0.852677 -7.157433 23.405451 0.430415 -3.070200 -4.739765 -0.001200 -0.220800 0.606700 -2.484510 -1.430959 1.599221 1.277108 -2.235423 -4.857234 2.107341 -0.928999 -3.784352 1.420025 1.653074 -14.004326 -6.439127 4.871936 36.860111 -2.024100 1.622500 10.568300 -7.330255 -12.115455 2.729099 -88.716329 12.976931 -8.809419 38.273604 -38.233067 -12.181694 0.998717 0.534469 11.377594 21.499543 -4.300561 -1.919000 -7.125000 0.000000 0.000000 -4.516400 24.526700 2.240700 5.733483 14.782460 4.683843 78.199942 -20.630494 -15.558414 -51.221184 45.694170 -24.410361 1.054318 -0.070179 -1.415701 -2.655511 -50.821817 2.875200 7.125000 0.000000 0.000000 63.868300 -71.822300 -45.727500 
10.477789 18.212347 0.579703 172.414806 -80.263348 -162.141506 -4.749774 2.680993 1.353406 -18.349513 -15.926015 -14.165747 -0.914404 6.371532 20.116742 -5.241398 18.358776 -1.336301 0.482300 4.453200 12.355400 -1.322531 -3.767903 0.205277 8.916665 29.310012 -16.165347 -0.874741 -7.193823 23.506949 0.408179 -2.931829 -4.616034 -0.001500 -0.246200 0.676500 -2.469581 -1.379588 1.705837 1.145226 -2.177217 -4.888986 1.913769 -0.902073 -3.911509 1.287586 1.643406 -14.222662 -6.049017 4.770867 37.468497 -1.905500 1.601700 10.770300 -7.313955 -12.099621 2.760723 -88.315437 13.033028 -8.654153 38.811951 -38.660101 -12.521330 0.983280 0.547189 11.575609 21.610644 -3.644831 -1.688600 -7.125000 0.000000 0.000000 -4.427700 25.210100 2.126000 5.728979 14.788514 4.689937 78.510672 -20.938393 -16.064646 -52.451494 46.175198 -25.349820 1.034482 -0.066989 -1.619210 -2.375888 -50.187889 2.619000 7.125000 0.000000 0.000000 62.357100 -71.449400 -44.000100 
10.500873 18.212572 0.574298 172.319029 -79.995384 -161.981594 -4.720885 2.638484 1.345619 -18.399007 -15.579461 -14.458943 -0.909575 6.400141 20.177722 -5.184069 18.189819 -1.293782 0.501700 4.540600 12.602800 -1.322812 -3.742154 0.185139 8.816310 29.501010 -16.357355 -0.897667 -7.226034 23.605702 0.396939 -2.840384 -4.456282 -0.004100 -0.412500 1.133300 -2.495549 -1.241746 1.856182 1.047403 -2.004602 -4.946162 1.820974 -0.811858 -4.035392 1.530050 1.764318 -13.428039 -6.282085 4.908332 36.679908 -2.006700 1.687600 10.395400 -7.302884 -12.113519 2.778357 -87.931451 13.034787 -8.283895 39.252930 -38.994454 -12.804306 0.958844 0.579308 11.920260 21.936876 -2.475018 -1.281300 -7.125000 0.000000 0.000000 -4.176300 26.417900 1.886800 5.714138 14.798495 4.684994 78.882001 -21.305316 -16.921583 -53.713070 46.668603 -26.434846 0.996918 -0.075847 -1.885503 -3.884949 -51.725494 3.829500 7.125000 0.000000 0.000000 65.619400 -72.583500 -48.132200 
